REM DIRINDEX 1\2\6,1\2\4\7,1\2\4\8,1\2\5\9,1\3\12,1\3\10\13,1\3\10\14,1\3\10\15,1\3\11\16,1\3\11\17
REM DIRNAME cjc048,folder01,folder02,folder03,folder04,folder05,folder06,folder07,folder08,folder09,folder10,folder11,folder12,folder13,folder14,folder15,folder16
TITLE ""
FILE "207.mp3" MP3
  TRACK 01 AUDIO
    TITLE "6:cjc048_05148"
    INDEX 01 00:00:00
  TRACK 02 AUDIO
    TITLE "9:cjc048_05149"
    INDEX 01 00:01:60
  TRACK 03 AUDIO
    TITLE "0:"
    INDEX 01 00:02:69
  TRACK 04 AUDIO
    TITLE "9:cjc048_05150"
    INDEX 01 00:03:39
  TRACK 05 AUDIO
    TITLE "0:"
    INDEX 01 00:04:52
  TRACK 06 AUDIO
    TITLE "9:cjc048_05151"
    INDEX 01 00:05:16
  TRACK 07 AUDIO
    TITLE "0:"
    INDEX 01 00:06:30
  TRACK 08 AUDIO
    TITLE "9:cjc048_05152"
    INDEX 01 00:07:00
  TRACK 09 AUDIO
    TITLE "0:"
    INDEX 01 00:08:05
  TRACK 10 AUDIO
    TITLE "9:cjc048_05153"
    INDEX 01 00:08:48
  TRACK 11 AUDIO
    TITLE "0:"
    INDEX 01 00:09:57
  TRACK 12 AUDIO
    TITLE "9:cjc048_05154"
    INDEX 01 00:10:25
  TRACK 13 AUDIO
    TITLE "0:"
    INDEX 01 00:11:42
  TRACK 14 AUDIO
    TITLE "9:cjc048_05155"
    INDEX 01 00:12:11
  TRACK 15 AUDIO
    TITLE "0:"
    INDEX 01 00:13:22
  TRACK 16 AUDIO
    TITLE "9:cjc048_05156"
    INDEX 01 00:13:69
  TRACK 17 AUDIO
    TITLE "0:"
    INDEX 01 00:14:74
  TRACK 18 AUDIO
    TITLE "9:cjc048_05157"
    INDEX 01 00:15:44
  TRACK 19 AUDIO
    TITLE "0:"
    INDEX 01 00:16:49
  TRACK 20 AUDIO
    TITLE "9:cjc048_05158"
    INDEX 01 00:17:20
  TRACK 21 AUDIO
    TITLE "0:"
    INDEX 01 00:18:25
  TRACK 22 AUDIO
    TITLE "9:cjc048_05159"
    INDEX 01 00:18:72
  TRACK 23 AUDIO
    TITLE "0:"
    INDEX 01 00:20:08
  TRACK 24 AUDIO
    TITLE "9:cjc048_05160"
    INDEX 01 00:20:53
  TRACK 25 AUDIO
    TITLE "0:"
    INDEX 01 00:21:68
  TRACK 26 AUDIO
    TITLE "9:cjc048_05161"
    INDEX 01 00:22:38
  TRACK 27 AUDIO
    TITLE "0:"
    INDEX 01 00:23:42
  TRACK 28 AUDIO
    TITLE "9:cjc048_05162"
    INDEX 01 00:24:14
  TRACK 29 AUDIO
    TITLE "0:"
    INDEX 01 00:25:23
  TRACK 30 AUDIO
    TITLE "9:cjc048_05163"
    INDEX 01 00:25:72
  TRACK 31 AUDIO
    TITLE "0:"
    INDEX 01 00:27:06
  TRACK 32 AUDIO
    TITLE "9:cjc048_05164"
    INDEX 01 00:27:51
  TRACK 33 AUDIO
    TITLE "0:"
    INDEX 01 00:28:51
  TRACK 34 AUDIO
    TITLE "9:cjc048_05165"
    INDEX 01 00:29:29
  TRACK 35 AUDIO
    TITLE "0:"
    INDEX 01 00:30:24
  TRACK 36 AUDIO
    TITLE "9:cjc048_05166"
    INDEX 01 00:30:69
  TRACK 37 AUDIO
    TITLE "0:"
    INDEX 01 00:31:63
  TRACK 38 AUDIO
    TITLE "9:cjc048_05167"
    INDEX 01 00:32:37
  TRACK 39 AUDIO
    TITLE "0:"
    INDEX 01 00:33:34
  TRACK 40 AUDIO
    TITLE "9:cjc048_05168"
    INDEX 01 00:34:04
  TRACK 41 AUDIO
    TITLE "0:"
    INDEX 01 00:35:06
  TRACK 42 AUDIO
    TITLE "9:cjc048_05169"
    INDEX 01 00:35:55
  TRACK 43 AUDIO
    TITLE "0:"
    INDEX 01 00:36:60
  TRACK 44 AUDIO
    TITLE "9:cjc048_05170"
    INDEX 01 00:37:28
  TRACK 45 AUDIO
    TITLE "0:"
    INDEX 01 00:38:30
  TRACK 46 AUDIO
    TITLE "9:cjc048_05171"
    INDEX 01 00:39:00
  TRACK 47 AUDIO
    TITLE "0:"
    INDEX 01 00:40:03
  TRACK 48 AUDIO
    TITLE "9:cjc048_05172"
    INDEX 01 00:40:48
  TRACK 49 AUDIO
    TITLE "0:"
    INDEX 01 00:41:49
  TRACK 50 AUDIO
    TITLE "9:cjc048_05173"
    INDEX 01 00:42:19
  TRACK 51 AUDIO
    TITLE "0:"
    INDEX 01 00:43:27
  TRACK 52 AUDIO
    TITLE "9:cjc048_05174"
    INDEX 01 00:43:74
  TRACK 53 AUDIO
    TITLE "0:"
    INDEX 01 00:44:71
  TRACK 54 AUDIO
    TITLE "9:cjc048_05175"
    INDEX 01 00:45:41
  TRACK 55 AUDIO
    TITLE "0:"
    INDEX 01 00:46:41
  TRACK 56 AUDIO
    TITLE "9:cjc048_05176"
    INDEX 01 00:47:11
  TRACK 57 AUDIO
    TITLE "0:"
    INDEX 01 00:48:18
  TRACK 58 AUDIO
    TITLE "9:cjc048_05177"
    INDEX 01 00:48:69
  TRACK 59 AUDIO
    TITLE "0:"
    INDEX 01 00:49:65
  TRACK 60 AUDIO
    TITLE "9:cjc048_05178"
    INDEX 01 00:50:37
  TRACK 61 AUDIO
    TITLE "0:"
    INDEX 01 00:51:40
  TRACK 62 AUDIO
    TITLE "9:cjc048_05179"
    INDEX 01 00:52:10
  TRACK 63 AUDIO
    TITLE "0:"
    INDEX 01 00:53:15
  TRACK 64 AUDIO
    TITLE "9:cjc048_05180"
    INDEX 01 00:53:60
  TRACK 65 AUDIO
    TITLE "0:"
    INDEX 01 00:54:62
  TRACK 66 AUDIO
    TITLE "9:cjc048_05181"
    INDEX 01 00:55:32
  TRACK 67 AUDIO
    TITLE "0:"
    INDEX 01 00:56:35
  TRACK 68 AUDIO
    TITLE "9:cjc048_05182"
    INDEX 01 00:57:07
  TRACK 69 AUDIO
    TITLE "0:"
    INDEX 01 00:58:05
  TRACK 70 AUDIO
    TITLE "9:cjc048_05183"
    INDEX 01 00:58:52
  TRACK 71 AUDIO
    TITLE "0:"
    INDEX 01 00:59:57
  TRACK 72 AUDIO
    TITLE "9:cjc048_05184"
    INDEX 01 01:00:27
  TRACK 73 AUDIO
    TITLE "0:"
    INDEX 01 01:01:29
  TRACK 74 AUDIO
    TITLE "9:cjc048_05185"
    INDEX 01 01:02:01
  TRACK 75 AUDIO
    TITLE "0:"
    INDEX 01 01:03:27
  TRACK 76 AUDIO
    TITLE "9:cjc048_05186"
    INDEX 01 01:03:71
  TRACK 77 AUDIO
    TITLE "0:"
    INDEX 01 01:05:09
  TRACK 78 AUDIO
    TITLE "9:cjc048_05187"
    INDEX 01 01:05:54
  TRACK 79 AUDIO
    TITLE "0:"
    INDEX 01 01:07:02
  TRACK 80 AUDIO
    TITLE "9:cjc048_05188"
    INDEX 01 01:07:47
  TRACK 81 AUDIO
    TITLE "0:"
    INDEX 01 01:08:56
  TRACK 82 AUDIO
    TITLE "9:cjc048_05189"
    INDEX 01 01:09:26
  TRACK 83 AUDIO
    TITLE "0:"
    INDEX 01 01:10:39
  TRACK 84 AUDIO
    TITLE "9:cjc048_05190"
    INDEX 01 01:11:09
  TRACK 85 AUDIO
    TITLE "0:"
    INDEX 01 01:12:21
  TRACK 86 AUDIO
    TITLE "9:cjc048_05191"
    INDEX 01 01:12:66
  TRACK 87 AUDIO
    TITLE "0:"
    INDEX 01 01:14:17
  TRACK 88 AUDIO
    TITLE "9:cjc048_05192"
    INDEX 01 01:14:65
  TRACK 89 AUDIO
    TITLE "0:"
    INDEX 01 01:15:70
  TRACK 90 AUDIO
    TITLE "9:cjc048_05193"
    INDEX 01 01:16:42
  TRACK 91 AUDIO
    TITLE "0:"
    INDEX 01 01:17:59
  TRACK 92 AUDIO
    TITLE "9:cjc048_05194"
    INDEX 01 01:18:29
  TRACK 93 AUDIO
    TITLE "0:"
    INDEX 01 01:19:46
  TRACK 94 AUDIO
    TITLE "9:cjc048_05195"
    INDEX 01 01:20:16
  TRACK 95 AUDIO
    TITLE "0:"
    INDEX 01 01:21:29
